<svg width="100" height="67" viewBox="0 0 100 67" fill="none" xmlns="http://www.w3.org/2000/svg">
<path fill-rule="evenodd" clip-rule="evenodd" d="M38.0518 17.8669C38.1253 18.4142 37.7412 18.9176 37.1938 18.9911L31.2841 19.7849C29.1573 20.0706 27.2026 21.1068 25.7725 22.7066L3.46039 47.6659C3.09231 48.0777 2.46014 48.1131 2.04839 47.745C1.63664 47.3769 1.60124 46.7447 1.96932 46.333L24.2814 21.3737C26.0294 19.4184 28.4185 18.1519 31.0179 17.8027L36.9276 17.0089C37.4749 16.9354 37.9783 17.3195 38.0518 17.8669Z" fill="#9EA4BC"/>
<path d="M38.7031 6C38.7031 3.79086 40.494 2 42.7031 2H94.2886C96.1445 2.00184 97.7048 3.5693 97.7031 5.57263L97.6966 15.1268C94.464 15.9897 92.0923 18.9641 92.0895 22.4897C92.0866 26.0154 94.4535 28.9939 97.6847 29.8623L97.6782 39.4337C97.6765 41.4349 96.1161 42.9984 94.2628 43H40.9211C40.1003 43 39.3835 42.5541 39 41.8912L37.5 43.2498C38.2662 44.3101 39.5131 45 40.9211 45H95.0895V44.9356C97.7084 44.5241 99.6759 42.1932 99.6782 39.4351L99.685 29.483C99.6855 28.7226 99.1327 28.1379 98.4698 27.9952C95.9738 27.4577 94.0873 25.2033 94.0895 22.4913C94.0917 19.7794 95.9818 17.5284 98.4786 16.9952C99.1418 16.8536 99.6958 16.2696 99.6963 15.509L99.7031 5.57401C99.7055 2.53024 97.3127 0.00263846 94.2891 0H42.7031C39.3894 0 36.7031 2.68629 36.7031 6V29.69C36.7031 30.2423 37.1508 30.69 37.7031 30.69C38.2554 30.69 38.7031 30.2423 38.7031 29.69V6Z" fill="#9EA4BC"/>
<path d="M64.7036 32.1304L60.2036 36.6304" stroke="#1E57A8" stroke-width="2" stroke-linecap="round"/>
<path fill-rule="evenodd" clip-rule="evenodd" d="M65.7036 8.00006C65.7036 7.44778 66.1513 7.00006 66.7036 7.00006H68.7036C69.2559 7.00006 69.7036 7.44778 69.7036 8.00006C69.7036 8.55235 69.2559 9.00006 68.7036 9.00006H66.7036C66.1513 9.00006 65.7036 8.55235 65.7036 8.00006Z" fill="#1E57A8"/>
<path d="M75.2036 36.6304L70.7036 32.1304" stroke="#1E57A8" stroke-width="2" stroke-linecap="round"/>
<path d="M75.7295 25.0703C73.1858 26.1108 70.4549 26.616 67.7073 26.5544C64.9254 26.6318 62.1682 26.0142 59.6851 24.7575C58.9705 24.3773 58.3051 23.9113 57.7036 23.3696V26.747C57.7036 28.5789 58.4313 30.3357 59.7267 31.6311C61.022 32.9264 62.7789 33.6541 64.6107 33.6541H70.852C72.6839 33.6541 74.4408 32.9264 75.7361 31.6311C77.0314 30.3357 77.7592 28.5789 77.7592 26.747V23.875C77.1303 24.3494 76.4494 24.7504 75.7295 25.0703ZM67.7073 31.3517C67.3009 31.3517 66.9112 31.1903 66.6239 30.9029C66.3365 30.6156 66.1751 30.2259 66.1751 29.8195C66.1751 29.4131 66.3365 29.0234 66.6239 28.736C66.9112 28.4487 67.3009 28.2872 67.7073 28.2872C68.1137 28.2872 68.5034 28.4487 68.7908 28.736C69.0781 29.0234 69.2396 29.4131 69.2396 29.8195C69.2396 30.2259 69.0781 30.6156 68.7908 30.9029C68.5034 31.1903 68.1137 31.3517 67.7073 31.3517Z" fill="#1E57A8"/>
<path d="M70.852 10H64.6107C62.7795 10.0021 61.0239 10.7305 59.729 12.0254C58.4341 13.3203 57.7057 15.0759 57.7036 16.9071V20.9985C58.3658 21.8982 59.2355 22.6247 60.2386 23.1163C62.5446 24.2772 65.1025 24.8478 67.6832 24.7769C70.2762 24.8411 72.8545 24.3686 75.2562 23.3891C75.9587 23.0858 76.6171 22.6891 77.2136 22.2098C77.411 22.0471 77.5935 21.8672 77.7592 21.6723V16.9071C77.757 15.0759 77.0286 13.3203 75.7338 12.0254C74.4389 10.7305 72.6833 10.0021 70.852 10V10ZM74.6866 17.6773C74.6866 18.8985 74.2015 20.0698 73.3379 20.9333C72.4744 21.7969 71.3031 22.282 70.0819 22.282H65.3809C64.1596 22.282 62.9884 21.7969 62.1248 20.9333C61.2613 20.0698 60.7761 18.8985 60.7761 17.6773V16.137C60.7761 15.3242 61.099 14.5448 61.6737 13.9701C62.2484 13.3954 63.0279 13.0725 63.8406 13.0725H71.6222C72.4349 13.0725 73.2144 13.3954 73.7891 13.9701C74.3638 14.5448 74.6866 15.3242 74.6866 16.137V17.6773Z" fill="#1E57A8"/>
<path fill-rule="evenodd" clip-rule="evenodd" d="M48.1814 25.8954C48.1151 25.7639 47.9532 25.7132 47.8237 25.7834L28.394 36.3078C27.9083 36.5709 27.3014 36.3904 27.0384 35.9048C26.7753 35.4192 26.9558 34.8123 27.4414 34.5492L46.8711 24.0248C47.9919 23.4177 49.3926 23.8564 49.9669 24.9943C51.3107 27.6567 50.8059 30.8797 48.7124 33.0038L36.0964 45.8043C36.041 45.8605 35.9936 45.924 35.9555 45.9932L35.5632 46.7066C32.7365 51.846 28.2402 55.8666 22.818 58.1034L2.38161 66.5339C1.87106 66.7445 1.28645 66.5014 1.07583 65.9908C0.865218 65.4803 1.10836 64.8957 1.61891 64.6851L22.0553 56.2545C27.0565 54.1914 31.2036 50.483 33.8108 45.7427L34.2031 45.0294C34.3297 44.7991 34.4875 44.5875 34.6719 44.4003L47.2879 31.5999C48.7789 30.0871 49.1385 27.7916 48.1814 25.8954Z" fill="#9EA4BC"/>
</svg>
