<svg width="70" height="67" viewBox="0 0 70 67" fill="none" xmlns="http://www.w3.org/2000/svg">
<rect x="1" y="29.0002" width="33" height="32" rx="5" stroke="#9EA4BC" stroke-width="2"/>
<circle cx="9" cy="64.9999" r="1" fill="#9EA4BC" stroke="#9EA4BC" stroke-width="2"/>
<circle cx="26" cy="64.9999" r="1" fill="#9EA4BC" stroke="#9EA4BC" stroke-width="2"/>
<path d="M12 29.0002L12 9.00024C12 7.89567 12.8954 7.00024 14 7.00024L21 7.00024C22.1046 7.00024 23 7.89567 23 9.00024L23 29.0002" stroke="#9EA4BC" stroke-width="2"/>
<path d="M12 9.00024L23 9.00024" stroke="#9EA4BC" stroke-width="2"/>
<path d="M29 45L29 55C29 55.5523 28.5523 56 28 56L7 56C6.44771 56 6 55.5523 6 55L6 45L29 45Z" stroke="#9EA4BC" stroke-width="2"/>
<circle cx="50" cy="17.0002" r="14" stroke="#1E57A8" stroke-width="2"/>
<path fill-rule="evenodd" clip-rule="evenodd" d="M59.2514 0.459975C59.5498 -0.00476831 60.1684 -0.13963 60.6332 0.158752C62.795 1.54672 64.6717 3.33933 66.1568 5.42981C67.289 7.02361 68.1939 8.79101 68.8237 10.6847C68.998 11.2087 68.7144 11.7748 68.1903 11.9491C67.6663 12.1234 67.1001 11.8398 66.9259 11.3158C66.3596 9.61311 65.5457 8.02296 64.5264 6.58809C63.1891 4.70565 61.4989 3.0913 59.5526 1.84174C59.0879 1.54335 58.953 0.924718 59.2514 0.459975ZM68.8416 16.0002C69.3939 16.0002 69.8416 16.4479 69.8416 17.0002C69.8416 18.2576 69.7254 19.4888 69.503 20.6833C69.4019 21.2262 68.8798 21.5844 68.3368 21.4833C67.7939 21.3822 67.4357 20.8601 67.5368 20.3172C67.7368 19.2428 67.8416 18.1342 67.8416 17.0002C67.8416 16.4479 68.2893 16.0002 68.8416 16.0002Z" fill="#9EA4BC"/>
<rect x="49.1665" y="5.33356" width="1.66667" height="1.66667" rx="0.833333" fill="#1E57A8"/>
<rect x="49.1665" y="9.50024" width="1.66667" height="8.33333" rx="0.833333" fill="#1E57A8"/>
<rect x="54.1665" y="16.1669" width="1.66667" height="5" rx="0.833333" transform="rotate(90 54.1665 16.1669)" fill="#1E57A8"/>
<rect x="49.1665" y="25.3335" width="1.66667" height="1.66667" rx="0.833333" fill="#1E57A8"/>
<rect x="39.1665" y="17.8335" width="1.66667" height="1.66667" rx="0.833333" transform="rotate(-90 39.1665 17.8335)" fill="#1E57A8"/>
<rect x="59.1665" y="17.8335" width="1.66667" height="1.66667" rx="0.833333" transform="rotate(-90 59.1665 17.8335)" fill="#1E57A8"/>
<rect x="42.9287" y="25.2499" width="1.66667" height="1.66667" rx="0.833333" transform="rotate(-135 42.9287 25.2499)" fill="#1E57A8"/>
<rect x="57.0713" y="11.1077" width="1.66667" height="1.66667" rx="0.833333" transform="rotate(-135 57.0713 11.1077)" fill="#1E57A8"/>
<rect width="1.66667" height="1.66667" rx="0.833333" transform="matrix(-0.707107 0.707107 0.707107 0.707107 42.9287 8.75073)" fill="#1E57A8"/>
<rect width="1.66667" height="1.66667" rx="0.833333" transform="matrix(-0.707107 0.707107 0.707107 0.707107 57.0713 22.8928)" fill="#1E57A8"/>
</svg>
