<svg width="67" height="67" viewBox="0 0 67 67" fill="none" xmlns="http://www.w3.org/2000/svg">
<circle cx="29.4461" cy="29.4461" r="28.4461" stroke="#9EA4BC" stroke-width="2"/>
<path d="M7.0957 30.4461C7.0957 27.9829 7.47712 25.6087 8.18412 23.3795M11.649 16.5904C15.1142 11.8972 20.2951 8.54803 26.2657 7.46887" stroke="#9EA4BC" stroke-width="2" stroke-linecap="round"/>
<path fill-rule="evenodd" clip-rule="evenodd" d="M48.9901 48.9901C49.7711 48.209 51.0375 48.209 51.8185 48.9901L65.8603 63.0319C66.6414 63.8129 66.6414 65.0793 65.8603 65.8603C65.0793 66.6414 63.8129 66.6414 63.0319 65.8603L48.9901 51.8185C48.209 51.0375 48.209 49.7711 48.9901 48.9901Z" fill="#9EA4BC"/>
<path fill-rule="evenodd" clip-rule="evenodd" d="M28.9463 44.113C28.9463 44.113 39.4463 35.113 39.4463 26.9463C39.4463 24.1615 38.34 21.4908 36.3709 19.5217C34.4018 17.5525 31.7311 16.4463 28.9463 16.4463C26.1615 16.4463 23.4908 17.5525 21.5217 19.5217C19.5525 21.4908 18.4463 24.1615 18.4463 26.9463C18.4463 35.113 28.9463 44.113 28.9463 44.113ZM28.9462 30.4462C30.8792 30.4462 32.4462 28.8792 32.4462 26.9462C32.4462 25.0132 30.8792 23.4462 28.9462 23.4462C27.0132 23.4462 25.4462 25.0132 25.4462 26.9462C25.4462 28.8792 27.0132 30.4462 28.9462 30.4462Z" fill="#1E57A8"/>
</svg>
